<svg xmlns="http://www.w3.org/2000/svg" viewBox="0 0 128 128">
    <defs>
        <linearGradient id="grad" x1="0%" y1="0%" x2="100%" y2="100%">
            <stop offset="0%" style="stop-color:#fbbf24;stop-opacity:1" />
            <stop offset="100%" style="stop-color:#38bdf8;stop-opacity:1" />
        </linearGradient>
    </defs>

    <!-- Clean, proper S letterform -->
    <path d="M 85 38
             C 85 28, 78 20, 64 20
             C 50 20, 43 28, 43 38
             C 43 48, 48 52, 58 56
             L 70 62
             C 78 66, 80 68, 80 74
             C 80 80, 76 84, 64 84
             C 52 84, 48 80, 48 74
             L 33 74
             C 33 88, 42 98, 64 98
             C 86 98, 95 88, 95 74
             C 95 64, 90 60, 80 56
             L 68 50
             C 60 46, 58 44, 58 38
             C 58 32, 62 28, 64 28
             C 66 28, 70 32, 70 38
             L 85 38
             Z"
             fill="url(#grad)"
             stroke="none" />

    <style>
        @media (prefers-color-scheme: light) {
            path {
                fill: #0f172a;
            }
        }
    </style>
</svg>
